<?xml version="1.0" encoding="UTF-8"?>
<svg xmlns="http://www.w3.org/2000/svg" xmlns:xlink="http://www.w3.org/1999/xlink" width="50px" height="50px" viewBox="0 0 50 50" version="1.1">
<g>
<path style=" stroke:none;fill-rule:nonzero;fill:#015dcc;fill-opacity:1;" d="M 33.566406 15.179688 C 33.566406 15.421875 33.472656 15.632812 33.285156 15.820312 L 22.320312 26.785156 L 33.285156 37.75 C 33.472656 37.9375 33.566406 38.152344 33.566406 38.394531 C 33.566406 38.632812 33.472656 38.847656 33.285156 39.035156 L 31.890625 40.429688 C 31.707031 40.617188 31.492188 40.707031 31.25 40.707031 C 31.007812 40.707031 30.792969 40.617188 30.609375 40.429688 L 17.605469 27.425781 C 17.421875 27.242188 17.328125 27.027344 17.328125 26.785156 C 17.328125 26.542969 17.421875 26.328125 17.605469 26.144531 L 30.609375 13.140625 C 30.792969 12.957031 31.007812 12.863281 31.25 12.863281 C 31.492188 12.863281 31.707031 12.957031 31.890625 13.140625 L 33.285156 14.535156 C 33.472656 14.722656 33.566406 14.9375 33.566406 15.179688 Z M 33.566406 15.179688 "/>
</g>
</svg>
