<?xml version="1.0" encoding="UTF-8"?>
<svg xmlns="http://www.w3.org/2000/svg" xmlns:xlink="http://www.w3.org/1999/xlink" width="50px" height="50px" viewBox="0 0 50 50" version="1.1">
<g>
<path style=" stroke:none;fill-rule:nonzero;fill:#015dcc;fill-opacity:1;" d="M 32.671875 26.785156 C 32.671875 27.027344 32.578125 27.242188 32.394531 27.425781 L 19.390625 40.429688 C 19.207031 40.617188 18.992188 40.707031 18.75 40.707031 C 18.507812 40.707031 18.292969 40.617188 18.109375 40.429688 L 16.714844 39.035156 C 16.527344 38.847656 16.433594 38.632812 16.433594 38.394531 C 16.433594 38.152344 16.527344 37.9375 16.714844 37.75 L 27.679688 26.785156 L 16.714844 15.820312 C 16.527344 15.632812 16.433594 15.421875 16.433594 15.179688 C 16.433594 14.9375 16.527344 14.722656 16.714844 14.535156 L 18.109375 13.140625 C 18.292969 12.957031 18.507812 12.863281 18.75 12.863281 C 18.992188 12.863281 19.207031 12.957031 19.390625 13.140625 L 32.394531 26.144531 C 32.578125 26.328125 32.671875 26.542969 32.671875 26.785156 Z M 32.671875 26.785156 "/>
</g>
</svg>
